<svg width="20" height="20" viewBox="0 0 20 20" fill="none" xmlns="http://www.w3.org/2000/svg">
<path d="M12.4503 4.32508C12.7653 3.96198 13.0055 3.54022 13.1571 3.08403C13.3087 2.62783 13.3687 2.14619 13.3336 1.66675C12.3664 1.74482 11.4686 2.19971 10.8336 2.93341C10.5295 3.28506 10.2991 3.69415 10.156 4.13645C10.0128 4.57876 9.95989 5.04528 10.0003 5.50842C10.4721 5.51235 10.9384 5.40766 11.3633 5.20246C11.7881 4.99727 12.1601 4.69706 12.4503 4.32508ZM14.5503 10.5251C14.5559 9.88653 14.7241 9.25993 15.039 8.70442C15.354 8.1489 15.8052 7.6828 16.3503 7.35008C16.0063 6.85445 15.5516 6.44578 15.0222 6.15648C14.4927 5.86718 13.9032 5.70521 13.3003 5.68342C12.0003 5.55008 10.8003 6.44175 10.1086 6.44175C9.41696 6.44175 8.44196 5.70008 7.35863 5.71675C6.6504 5.74008 5.96031 5.94657 5.35566 6.31607C4.75102 6.68558 4.25247 7.20548 3.90863 7.82508C2.44196 10.3751 3.53363 14.1667 5.00029 16.2251C5.66696 17.2334 6.50029 18.3751 7.60029 18.3334C8.70029 18.2917 9.05863 17.6501 10.3336 17.6501C11.6086 17.6501 12.0003 18.3334 13.0836 18.3084C14.167 18.2834 14.9336 17.2751 15.6336 16.2668C16.1295 15.5347 16.5168 14.7347 16.7836 13.8917C16.1232 13.6101 15.5597 13.1412 15.1628 12.5428C14.7659 11.9445 14.553 11.2431 14.5503 10.5251Z" fill="#231F1E"/>
</svg>
