<svg width="25" height="24" viewBox="0 0 25 24" fill="none" xmlns="http://www.w3.org/2000/svg">
<path d="M7.55937 12.5342L14.8331 20.3678C14.9545 20.4986 15.1157 20.5715 15.2834 20.5715C15.4511 20.5715 15.6123 20.4986 15.7337 20.3678L15.7415 20.359C15.8005 20.2956 15.8475 20.2192 15.8797 20.1347C15.9118 20.0501 15.9284 19.959 15.9284 19.867C15.9284 19.7749 15.9118 19.6838 15.8797 19.5992C15.8475 19.5147 15.8005 19.4383 15.7415 19.375L8.89195 11.9986L15.7415 4.62526C15.8005 4.56186 15.8475 4.48555 15.8797 4.40097C15.9118 4.31639 15.9284 4.2253 15.9284 4.13326C15.9284 4.04121 15.9118 3.95013 15.8797 3.86554C15.8475 3.78096 15.8005 3.70465 15.7415 3.64126L15.7337 3.6324C15.6123 3.50163 15.4511 3.42868 15.2834 3.42868C15.1157 3.42868 14.9545 3.50163 14.8331 3.6324L7.55937 11.4661C7.4954 11.5349 7.44447 11.6178 7.40967 11.7096C7.37488 11.8014 7.35693 11.9002 7.35693 12.0001C7.35693 12.1 7.37488 12.1988 7.40967 12.2906C7.44447 12.3824 7.4954 12.4653 7.55937 12.5342Z" fill="#E35AA0"/>
</svg>
