<svg width="16" height="16" viewBox="0 0 16 16" fill="none" xmlns="http://www.w3.org/2000/svg">
<path d="M8.3561 11.2938L13.5785 6.4446C13.6657 6.36369 13.7144 6.2562 13.7144 6.14441C13.7144 6.03263 13.6657 5.92514 13.5785 5.84422L13.5726 5.839C13.5304 5.79964 13.4795 5.7683 13.4231 5.74689C13.3667 5.72547 13.306 5.71443 13.2446 5.71443C13.1833 5.71443 13.1225 5.72547 13.0662 5.74689C13.0098 5.7683 12.9589 5.79964 12.9166 5.839L7.99909 10.4054L3.08351 5.839C3.04124 5.79964 2.99037 5.7683 2.93398 5.74689C2.87759 5.72547 2.81687 5.71442 2.7555 5.71442C2.69414 5.71442 2.63342 5.72547 2.57703 5.74689C2.52064 5.7683 2.46977 5.79964 2.4275 5.839L2.4216 5.84422C2.33442 5.92513 2.28578 6.03263 2.28578 6.14441C2.28578 6.2562 2.33442 6.36369 2.4216 6.4446L7.64404 11.2938C7.68997 11.3364 7.7452 11.3704 7.8064 11.3936C7.8676 11.4167 7.93349 11.4287 8.00007 11.4287C8.06665 11.4287 8.13254 11.4167 8.19374 11.3936C8.25494 11.3704 8.31017 11.3364 8.3561 11.2938Z" fill="#303030"/>
</svg>
