<svg width="24" height="24" viewBox="0 0 24 24" fill="none" xmlns="http://www.w3.org/2000/svg">
<path d="M16.9401 11.4661L9.66642 3.63244C9.54505 3.50166 9.38381 3.42871 9.21613 3.42871C9.04846 3.42871 8.88722 3.50166 8.76585 3.63244L8.75802 3.64129C8.69898 3.70469 8.65197 3.781 8.61984 3.86558C8.58772 3.95016 8.57115 4.04124 8.57115 4.13329C8.57115 4.22534 8.58772 4.31642 8.61984 4.401C8.65197 4.48558 8.69898 4.56189 8.75802 4.62529L15.6076 12.0016L8.75802 19.375C8.69898 19.4384 8.65197 19.5147 8.61984 19.5993C8.58772 19.6839 8.57115 19.7749 8.57115 19.867C8.57115 19.959 8.58772 20.0501 8.61984 20.1347C8.65197 20.2193 8.69898 20.2956 8.75802 20.359L8.76585 20.3678C8.88722 20.4986 9.04846 20.5716 9.21613 20.5716C9.38381 20.5716 9.54505 20.4986 9.66642 20.3678L16.9401 12.5342C17.0041 12.4653 17.055 12.3824 17.0898 12.2906C17.1246 12.1988 17.1426 12.1 17.1426 12.0001C17.1426 11.9003 17.1246 11.8014 17.0898 11.7096C17.055 11.6178 17.0041 11.535 16.9401 11.4661Z" fill="#231F1E"/>
</svg>
