<svg width="14" height="18" viewBox="0 0 14 18" fill="none" xmlns="http://www.w3.org/2000/svg">
<path d="M12.8333 4.83317H10.3333V3.99984C10.3333 3.11578 9.98212 2.26794 9.357 1.64281C8.73188 1.01769 7.88403 0.666504 6.99998 0.666504C6.11592 0.666504 5.26808 1.01769 4.64296 1.64281C4.01784 2.26794 3.66665 3.11578 3.66665 3.99984V4.83317H1.16665C0.945633 4.83317 0.733671 4.92097 0.577391 5.07725C0.421111 5.23353 0.333313 5.44549 0.333313 5.6665V14.8332C0.333313 15.4962 0.596705 16.1321 1.06555 16.6009C1.53439 17.0698 2.17027 17.3332 2.83331 17.3332H11.1666C11.8297 17.3332 12.4656 17.0698 12.9344 16.6009C13.4033 16.1321 13.6666 15.4962 13.6666 14.8332V5.6665C13.6666 5.44549 13.5788 5.23353 13.4226 5.07725C13.2663 4.92097 13.0543 4.83317 12.8333 4.83317ZM5.33331 3.99984C5.33331 3.55781 5.50891 3.13389 5.82147 2.82133C6.13403 2.50877 6.55795 2.33317 6.99998 2.33317C7.44201 2.33317 7.86593 2.50877 8.17849 2.82133C8.49105 3.13389 8.66665 3.55781 8.66665 3.99984V4.83317H5.33331V3.99984ZM12 14.8332C12 15.0542 11.9122 15.2661 11.7559 15.4224C11.5996 15.5787 11.3877 15.6665 11.1666 15.6665H2.83331C2.6123 15.6665 2.40034 15.5787 2.24406 15.4224C2.08778 15.2661 1.99998 15.0542 1.99998 14.8332V6.49984H3.66665V7.33317C3.66665 7.55418 3.75444 7.76615 3.91072 7.92243C4.067 8.07871 4.27897 8.1665 4.49998 8.1665C4.72099 8.1665 4.93295 8.07871 5.08923 7.92243C5.24552 7.76615 5.33331 7.55418 5.33331 7.33317V6.49984H8.66665V7.33317C8.66665 7.55418 8.75444 7.76615 8.91072 7.92243C9.067 8.07871 9.27897 8.1665 9.49998 8.1665C9.72099 8.1665 9.93295 8.07871 10.0892 7.92243C10.2455 7.76615 10.3333 7.55418 10.3333 7.33317V6.49984H12V14.8332Z" fill="#231F1E"/>
</svg>
