<svg width="16" height="16" viewBox="0 0 16 16" fill="none" xmlns="http://www.w3.org/2000/svg">
<path d="M7.99968 4.00016C7.91212 4.00014 7.82542 4.01737 7.74453 4.05086C7.66363 4.08436 7.59013 4.13346 7.52822 4.19537C7.46631 4.25728 7.41721 4.33079 7.38371 4.41168C7.35022 4.49257 7.33299 4.57928 7.33301 4.66683V7.3335H5.99968C5.82287 7.3335 5.6533 7.40373 5.52827 7.52876C5.40325 7.65378 5.33301 7.82335 5.33301 8.00016C5.33301 8.17697 5.40325 8.34654 5.52827 8.47157C5.6533 8.59659 5.82287 8.66683 5.99968 8.66683H7.99968C8.08723 8.66685 8.17393 8.64962 8.25483 8.61613C8.33572 8.58263 8.40922 8.53353 8.47113 8.47162C8.53304 8.40971 8.58215 8.33621 8.61564 8.25531C8.64914 8.17442 8.66637 8.08772 8.66634 8.00016V4.66683C8.66637 4.57928 8.64914 4.49257 8.61564 4.41168C8.58215 4.33079 8.53304 4.25728 8.47113 4.19537C8.40922 4.13346 8.33572 4.08436 8.25483 4.05086C8.17393 4.01737 8.08723 4.00014 7.99968 4.00016ZM7.99968 1.3335C6.68114 1.3335 5.3922 1.72449 4.29588 2.45703C3.19955 3.18957 2.34506 4.23077 1.84048 5.44894C1.3359 6.66711 1.20387 8.00756 1.46111 9.30077C1.71834 10.594 2.35328 11.7819 3.28563 12.7142C4.21798 13.6466 5.40587 14.2815 6.69908 14.5387C7.99228 14.796 9.33273 14.6639 10.5509 14.1594C11.7691 13.6548 12.8103 12.8003 13.5428 11.704C14.2754 10.6076 14.6663 9.31871 14.6663 8.00016C14.6643 6.23267 13.9613 4.53816 12.7115 3.28835C11.4617 2.03855 9.76717 1.33552 7.99968 1.3335ZM7.99968 13.3335C6.94484 13.3335 5.9137 13.0207 5.03664 12.4347C4.15957 11.8486 3.47599 11.0157 3.07232 10.0411C2.66865 9.0666 2.56304 7.99425 2.76882 6.95968C2.97461 5.92512 3.48256 4.97481 4.22844 4.22893C4.97432 3.48305 5.92463 2.9751 6.9592 2.76931C7.99376 2.56352 9.06612 2.66914 10.0407 3.07281C11.0152 3.47647 11.8481 4.16006 12.4342 5.03712C13.0202 5.91418 13.333 6.94533 13.333 8.00016C13.3314 9.41415 12.769 10.7698 11.7691 11.7696C10.7693 12.7695 9.41367 13.3319 7.99968 13.3335Z" fill="#231F1E"/>
</svg>
