<svg width="14" height="14" viewBox="0 0 14 14" fill="none" xmlns="http://www.w3.org/2000/svg">
<path d="M12.8337 4.22318C12.8341 4.14641 12.8194 4.07031 12.7904 3.99923C12.7613 3.92816 12.7186 3.86352 12.6645 3.80901L10.1912 1.33568C10.1367 1.28162 10.072 1.23884 10.0009 1.20981C9.92988 1.18078 9.85377 1.16607 9.777 1.16651C9.70023 1.16607 9.62413 1.18078 9.55306 1.20981C9.48199 1.23884 9.41734 1.28162 9.36284 1.33568L7.712 2.98651L1.33617 9.36235C1.2821 9.41685 1.23933 9.4815 1.2103 9.55257C1.18127 9.62364 1.16656 9.69974 1.167 9.77651V12.2498C1.167 12.4046 1.22846 12.5529 1.33786 12.6623C1.44725 12.7717 1.59563 12.8332 1.75034 12.8332H4.22367C4.30529 12.8376 4.38694 12.8249 4.46331 12.7957C4.53969 12.7666 4.60908 12.7217 4.667 12.664L11.0078 6.28818L12.6645 4.66651C12.7177 4.60998 12.7611 4.54491 12.7928 4.47401C12.7985 4.42752 12.7985 4.38051 12.7928 4.33401C12.7956 4.30686 12.7956 4.2795 12.7928 4.25235L12.8337 4.22318ZM3.9845 11.6665H2.33367V10.0157L8.12617 4.22318L9.777 5.87401L3.9845 11.6665ZM10.5995 5.05151L8.94867 3.40068L9.777 2.57818L11.422 4.22318L10.5995 5.05151Z" fill="#231F1E"/>
</svg>
