<svg width="18" height="16" viewBox="0 0 18 16" fill="none" xmlns="http://www.w3.org/2000/svg">
<path d="M15.8 2.16648C14.9166 1.28082 13.7457 0.740262 12.4986 0.642454C11.2516 0.544646 10.0106 0.896034 9.00001 1.63315C7.93972 0.84451 6.62 0.486905 5.30661 0.632343C3.99321 0.777782 2.78371 1.41546 1.92165 2.41697C1.05959 3.41847 0.609024 4.70941 0.660673 6.02982C0.712322 7.35023 1.26235 8.60204 2.20001 9.53314L7.37501 14.7165C7.80835 15.143 8.39199 15.382 9.00001 15.382C9.60802 15.382 10.1917 15.143 10.625 14.7165L15.8 9.53314C16.773 8.5542 17.3191 7.23004 17.3191 5.84981C17.3191 4.46958 16.773 3.14542 15.8 2.16648ZM14.625 8.38315L9.45001 13.5581C9.39112 13.6176 9.32103 13.6648 9.24379 13.697C9.16655 13.7292 9.08369 13.7458 9.00001 13.7458C8.91632 13.7458 8.83346 13.7292 8.75622 13.697C8.67898 13.6648 8.60889 13.6176 8.55001 13.5581L3.37501 8.35815C2.72147 7.6901 2.35551 6.7927 2.35551 5.85815C2.35551 4.92359 2.72147 4.02619 3.37501 3.35815C4.04097 2.70064 4.93915 2.33195 5.87501 2.33195C6.81086 2.33195 7.70904 2.70064 8.37501 3.35815C8.45248 3.43625 8.54464 3.49825 8.64619 3.54056C8.74774 3.58286 8.85666 3.60464 8.96667 3.60464C9.07668 3.60464 9.1856 3.58286 9.28715 3.54056C9.3887 3.49825 9.48087 3.43625 9.55834 3.35815C10.2243 2.70064 11.1225 2.33195 12.0583 2.33195C12.9942 2.33195 13.8924 2.70064 14.5583 3.35815C15.2209 4.01744 15.5988 4.90997 15.6113 5.84455C15.6238 6.77913 15.2697 7.68142 14.625 8.35815V8.38315Z" fill="#231F1E"/>
</svg>
