<svg width="16" height="16" viewBox="0 0 16 16" fill="none" xmlns="http://www.w3.org/2000/svg">
<path d="M12.6666 1.3335H3.33325C2.80282 1.3335 2.29411 1.54421 1.91904 1.91928C1.54397 2.29436 1.33325 2.80306 1.33325 3.3335V4.1135C1.33316 4.38879 1.3899 4.66114 1.49992 4.9135V4.9535C1.59411 5.16748 1.72751 5.36194 1.89325 5.52683L5.99992 9.60683V14.0002C5.99969 14.1135 6.02834 14.2249 6.08317 14.3241C6.13799 14.4232 6.21718 14.5068 6.31325 14.5668C6.41935 14.6326 6.54177 14.6672 6.66658 14.6668C6.77095 14.6662 6.8737 14.6411 6.96658 14.5935L9.63325 13.2602C9.74319 13.2048 9.83565 13.12 9.90037 13.0153C9.96509 12.9105 9.99955 12.7899 9.99992 12.6668V9.60683L14.0799 5.52683C14.2457 5.36194 14.3791 5.16748 14.4733 4.9535V4.9135C14.5925 4.66312 14.6583 4.39068 14.6666 4.1135V3.3335C14.6666 2.80306 14.4559 2.29436 14.0808 1.91928C13.7057 1.54421 13.197 1.3335 12.6666 1.3335ZM8.85992 8.86016C8.79813 8.92246 8.74925 8.99633 8.71607 9.07756C8.68289 9.15878 8.66608 9.24576 8.66658 9.3335V12.2535L7.33325 12.9202V9.3335C7.33376 9.24576 7.31694 9.15878 7.28377 9.07756C7.25059 8.99633 7.20171 8.92246 7.13992 8.86016L3.60659 5.3335H12.3933L8.85992 8.86016ZM13.3333 4.00016H2.66659V3.3335C2.66659 3.15669 2.73682 2.98712 2.86185 2.86209C2.98687 2.73707 3.15644 2.66683 3.33325 2.66683H12.6666C12.8434 2.66683 13.013 2.73707 13.138 2.86209C13.263 2.98712 13.3333 3.15669 13.3333 3.3335V4.00016Z" fill="#231F1E"/>
</svg>
