<svg width="16" height="16" viewBox="0 0 16 16" fill="none" xmlns="http://www.w3.org/2000/svg">
<path d="M4.6666 4.00017C4.53474 4.00017 4.40585 4.03927 4.29622 4.11253C4.18658 4.18578 4.10114 4.2899 4.05068 4.41172C4.00022 4.53354 3.98702 4.66758 4.01274 4.7969C4.03846 4.92622 4.10196 5.04501 4.19519 5.13824C4.28843 5.23148 4.40722 5.29497 4.53654 5.3207C4.66586 5.34642 4.7999 5.33322 4.92172 5.28276C5.04354 5.2323 5.14766 5.14685 5.22091 5.03722C5.29416 4.92759 5.33326 4.79869 5.33326 4.66684C5.33326 4.49003 5.26302 4.32046 5.138 4.19544C5.01298 4.07041 4.84341 4.00017 4.6666 4.00017ZM14.4733 7.85351L8.15326 1.54684C8.0911 1.47982 8.01582 1.42629 7.9321 1.38959C7.84838 1.35289 7.75801 1.3338 7.6666 1.33351H3.6666C3.57886 1.333 3.49188 1.34982 3.41066 1.38299C3.32943 1.41617 3.25556 1.46505 3.19326 1.52684L1.5266 3.18684C1.46481 3.24913 1.41593 3.32301 1.38275 3.40424C1.34957 3.48546 1.33276 3.57244 1.33326 3.66017V7.66017C1.33572 7.83669 1.40477 8.00575 1.5266 8.13351L7.85326 14.4668C7.98102 14.5887 8.15008 14.6577 8.3266 14.6602C8.41433 14.6607 8.50131 14.6439 8.58253 14.6107C8.66376 14.5775 8.73764 14.5286 8.79993 14.4668L14.4733 8.79351C14.535 8.73121 14.5839 8.65734 14.6171 8.57611C14.6503 8.49489 14.6671 8.40791 14.6666 8.32017C14.6625 8.14598 14.5935 7.97958 14.4733 7.85351ZM8.3266 13.0602L2.6666 7.39351V3.93351L3.93326 2.66684H7.3866L13.0533 8.32684L8.3266 13.0602Z" fill="#231F1E"/>
</svg>
